<?xml version="1.0" encoding="utf-8"?>
<!-- Generator: Adobe Illustrator 24.0.0, SVG Export Plug-In . SVG Version: 6.00 Build 0)  -->
<svg version="1.1" id="图层_1" xmlns="http://www.w3.org/2000/svg" xmlns:xlink="http://www.w3.org/1999/xlink" x="0px" y="0px"
	 viewBox="0 0 290 290" style="enable-background:new 0 0 290 290;" xml:space="preserve">
<path d="M87.4,130.6h115.2V29.8c0-8,6.4-14.4,14.4-14.4c8,0,14.4,6.4,14.4,14.4c0,0,0,0,0,0v230.4c0,8-6.5,14.4-14.4,14.4
	c-7.9,0-14.4-6.4-14.4-14.4V159.4H87.4v100.8c0,8-6.4,14.4-14.4,14.4s-14.4-6.4-14.4-14.4V29.8c0-8,6.4-14.4,14.4-14.4
	s14.4,6.4,14.4,14.4V130.6z"/>
</svg>
